<?xml version="1.0" encoding="UTF-8"?>
<svg width="40px" height="40px" viewBox="0 0 40 40" version="1.1" xmlns="http://www.w3.org/2000/svg" xmlns:xlink="http://www.w3.org/1999/xlink">
    <!-- Generator: Sketch 51.2 (57519) - http://www.bohemiancoding.com/sketch -->
    <title>favicon</title>
    <desc>Created with Sketch.</desc>
    <defs>
        <linearGradient x1="74.9507512%" y1="19.6056376%" x2="30.2833935%" y2="74.0921229%" id="linearGradient-1">
            <stop stop-color="#000000" offset="0%"></stop>
            <stop stop-color="#FFFFFF" stop-opacity="0" offset="100%"></stop>
        </linearGradient>
    </defs>
    <g id="favicon" stroke="none" stroke-width="1" fill="none" fill-rule="evenodd">
        <g id="Group" transform="translate(4.000000, 5.000000)" fill-rule="nonzero">
            <path d="M18.6163522,0.659812261 C15.8808238,-0.746212845 12.5140711,0.309058217 11.0898177,3.0189205 L0.652941645,22.8924365 C-0.0312043154,24.1949875 -0.164936451,25.7139582 0.281233207,27.1144151 C0.727402865,28.514872 1.71683192,29.6818003 3.03135101,30.3578921 C4.34290166,31.0366732 5.87281174,31.1700601 7.28363369,30.7286319 C8.69445565,30.2872037 9.87028452,29.3072256 10.5517714,28.0048484 L20.9764191,8.15559063 C21.6699648,6.85198123 21.8108477,5.3278853 21.3678595,3.92091636 C20.9248714,2.51394741 19.9345801,1.34024782 18.6163522,0.659812261 Z" id="Shape" fill="#FBAE17"></path>
            <path d="M18.6163522,0.659812261 C17.3038902,-0.0192327214 15.7730752,-0.152780771 14.3612617,0.288598861 C12.9494481,0.729978494 11.7725106,1.71005955 11.0898177,3.01285596 L0.652941645,22.8924365 C-0.0309391048,24.1940839 -0.164508934,25.7121575 0.281709918,27.111631 C0.727928769,28.5111045 1.71725447,29.676933 3.03135101,30.3518275 C4.34290166,31.0306087 5.87281174,31.1639955 7.28363369,30.7225673 C8.69445565,30.2811391 9.87028452,29.301161 10.5517714,27.9987839 L20.9458483,8.11920336 C22.3775049,5.42113407 21.3349581,2.08274499 18.6163522,0.659812261 Z" id="Shape" fill="url(#linearGradient-1)" opacity="0.56" style="mix-blend-mode: multiply;"></path>
            <path d="M31.407181,22.8863719 L20.9703049,3.01285596 C19.5462084,0.302489559 16.1773643,-0.750722573 13.4437704,0.659812261 C12.123276,1.33797138 11.1305636,2.51118767 10.6862451,3.91873569 C10.2419265,5.32628371 10.3828109,6.85155651 11.0775894,8.15559063 L21.5083512,28.0291066 C22.9772976,30.6507402 26.2836739,31.6355985 28.9657275,30.2504082 C31.6477811,28.8652179 32.7302481,25.6136699 31.407181,22.9166946 L31.407181,22.8863719 Z" id="Shape" fill="#034A9A"></path>
        </g>
    </g>
</svg>