<?xml version="1.0" encoding="UTF-8"?>
<svg width="40px" height="22px" viewBox="0 0 40 22" version="1.1" xmlns="http://www.w3.org/2000/svg" xmlns:xlink="http://www.w3.org/1999/xlink">
    <!-- Generator: Sketch 50.2 (55047) - http://www.bohemiancoding.com/sketch -->
    <title>logo</title>
    <desc>Created with Sketch.</desc>
    <defs>
        <linearGradient x1="74.9507512%" y1="19.6056376%" x2="30.2833935%" y2="74.0921229%" id="linearGradient-1">
            <stop stop-color="#000000" offset="0%"></stop>
            <stop stop-color="#FFFFFF" stop-opacity="0" offset="100%"></stop>
        </linearGradient>
        <linearGradient x1="50.4025772%" y1="0%" x2="50.4025772%" y2="100%" id="linearGradient-2">
            <stop stop-color="#000000" offset="0%"></stop>
            <stop stop-color="#FFFFFF" stop-opacity="0" offset="100%"></stop>
        </linearGradient>
        <linearGradient x1="49.4363929%" y1="0%" x2="49.4363929%" y2="100%" id="linearGradient-3">
            <stop stop-color="#000000" offset="0%"></stop>
            <stop stop-color="#FFFFFF" stop-opacity="0" offset="100%"></stop>
        </linearGradient>
    </defs>
    <g id="logo" stroke="none" stroke-width="1" fill="none" fill-rule="evenodd">
        <g id="Group-2" fill-rule="nonzero">
            <path d="M12.7835052,0.683333333 C10.9385217,-0.282680994 8.66780751,0.442346575 7.70721649,2.30416667 L0.668041237,15.9583333 C0.206617407,16.8532555 0.116421458,17.8968694 0.417341619,18.8590581 C0.71826178,19.8212468 1.3855845,20.6229888 2.27216495,21.0875 C3.15674333,21.5538589 4.18859473,21.6455028 5.14012687,21.342218 C6.09165901,21.0389333 6.88469952,20.365636 7.3443299,19.4708333 L14.3752577,5.83333333 C14.8430213,4.93768407 14.93804,3.89054878 14.6392657,2.92388598 C14.3404913,1.95722319 13.672587,1.15082889 12.7835052,0.683333333 Z" id="Shape" fill="#FBAE17"></path>
            <path d="M12.7835052,0.683333333 C11.8983121,0.216793171 10.8658504,0.125038529 9.91364947,0.428289906 C8.96144853,0.731541282 8.16766032,1.4049093 7.70721649,2.3 L0.668041237,15.9583333 C0.206796279,16.8526346 0.116709798,17.8956323 0.417663138,18.8571453 C0.718616477,19.8186583 1.38586949,20.6196447 2.27216495,21.0833333 C3.15674333,21.5496922 4.18859473,21.6413361 5.14012687,21.3380514 C6.09165901,21.0347666 6.88469952,20.3614693 7.3443299,19.4666667 L14.3546392,5.80833333 C15.3202233,3.95461566 14.6170752,1.6609641 12.7835052,0.683333333 Z" id="Shape" fill="url(#linearGradient-1)" opacity="0.56" style="mix-blend-mode: multiply;"></path>
            <path d="M21.4103093,15.9541667 L14.371134,2.3 C13.4106488,0.437833556 11.1385241,-0.285779418 9.29484536,0.683333333 C8.40423485,1.14926486 7.73469768,1.9553271 7.435026,2.92238775 C7.13535431,3.8894484 7.23037413,4.93739226 7.69896907,5.83333333 L14.7340206,19.4875 C15.7247549,21.2887023 17.9547481,21.9653525 19.7636653,21.0136528 C21.5725826,20.0619531 22.302655,17.827966 21.4103093,15.975 L21.4103093,15.9541667 Z" id="Shape" fill="#034A9A"></path>
            <path d="M27.356701,11.1625 C25.2341056,11.1625 23.5134021,12.9011276 23.5134021,15.0458333 C23.5134021,17.1905391 25.2341056,18.9291667 27.356701,18.9291667 C29.4792964,18.9291667 31.2,17.1905391 31.2,15.0458333 C31.2010958,14.0155703 30.7965299,13.0271858 30.0755338,12.2986794 C29.3545378,11.5701729 28.3763428,11.1613928 27.356701,11.1625 Z M27.356701,16.3375 C26.8376139,16.3374973 26.3697185,16.0213249 26.1714599,15.5365934 C25.9732013,15.051862 26.0836823,14.4941755 26.4513229,14.1238998 C26.8189635,13.7536241 27.3712535,13.6437889 27.8503468,13.8456728 C28.32944,14.0475567 28.6408443,14.5213418 28.6391753,15.0458333 C28.639177,15.3891278 28.5039281,15.7183013 28.2632983,15.9606559 C28.0226684,16.2030105 27.6964546,16.3386074 27.356701,16.3375 Z" id="Shape" fill="#034A9A"></path>
            <rect id="Rectangle-path" fill="#034A9A" x="23.5175258" y="13.7541667" width="2.56082474" height="7.7625" rx="1.28041237"></rect>
            <g id="Group" opacity="0.56" style="mix-blend-mode: multiply;" transform="translate(23.505155, 15.000000)" fill="url(#linearGradient-2)">
                <path d="M-3.60235499e-08,0.0458333333 L-3.02392705e-15,5.225 C-8.88407333e-15,5.9383678 0.572337021,6.51666667 1.27835052,6.51666667 C1.98503418,6.51667036 2.55855245,5.93904127 2.56082474,5.225 L2.56082474,3.70416667 C1.02600432,3.15653562 -0.000222037935,1.69049305 -3.60235499e-08,0.0458333333 Z" id="Shape"></path>
            </g>
            <path d="M35.9917526,11.1625 C34.4369091,11.1608143 33.0342377,12.1058886 32.4380685,13.5568566 C31.8418994,15.0078246 32.169697,16.6787984 33.2685478,17.7902881 C34.3673985,18.9017778 36.0207929,19.2347837 37.4574417,18.6339624 C38.8940904,18.0331412 39.8309269,16.616874 39.8309278,15.0458333 C39.8309291,12.9027537 38.1127374,11.1647994 35.9917526,11.1625 Z M35.9917526,16.3375 C35.4722934,16.339185 35.0031326,16.0240846 34.8035731,15.5394883 C34.6040136,15.054892 34.7134743,14.496522 35.0807893,14.1253808 C35.4481042,13.7542396 36.0007179,13.6436387 36.4803183,13.845277 C36.9599188,14.0469152 37.2717707,14.5209632 37.2701031,15.0458333 C37.2701031,15.7592011 36.6977661,16.3375 35.9917526,16.3375 Z" id="Shape" fill="#034A9A"></path>
            <rect id="Rectangle-path" fill="#034A9A" x="32.1484536" y="13.7541667" width="2.56082474" height="7.7625" rx="1.28041237"></rect>
            <g id="Group" opacity="0.56" style="mix-blend-mode: multiply;" transform="translate(32.164948, 15.000000)" fill="url(#linearGradient-3)">
                <path d="M0,0.0458333333 L0,5.225 C0.00227229474,5.93904127 0.575790558,6.51667036 1.28247423,6.51666667 C1.98754802,6.51437959 2.55856125,5.93741831 2.56082474,5.225 L2.56082474,3.70416667 C1.02678607,3.15549119 0.00101299893,1.69009617 0,0.0458333333 Z" id="Shape"></path>
            </g>
        </g>
    </g>
</svg>