<svg width="40" height="40" xmlns="http://www.w3.org/2000/svg"><defs><linearGradient x1="74.951%" y1="19.606%" x2="30.283%" y2="74.092%" id="a"><stop offset="0%"/><stop stop-color="#FFF" stop-opacity="0" offset="100%"/></linearGradient></defs><g fill="none"><path d="M22.616 5.66c-2.735-1.406-6.102-.35-7.526 2.359L4.653 27.892a5.49 5.49 0 0 0-.372 4.222 5.543 5.543 0 0 0 2.75 3.244 5.611 5.611 0 0 0 4.253.37 5.559 5.559 0 0 0 3.268-2.723l10.424-19.85a5.497 5.497 0 0 0 .392-4.234 5.548 5.548 0 0 0-2.752-3.261z" fill="#FBAE17"/><path d="M18.616.66a5.617 5.617 0 0 0-4.255-.371 5.565 5.565 0 0 0-3.271 2.724L.653 22.893a5.484 5.484 0 0 0-.371 4.219 5.537 5.537 0 0 0 2.75 3.24 5.611 5.611 0 0 0 4.252.37A5.559 5.559 0 0 0 10.552 28L20.946 8.12c1.432-2.698.389-6.036-2.33-7.46z" fill="url(#a)" opacity=".56" style="mix-blend-mode:multiply" transform="translate(4 5)"/><path d="M35.407 27.886L24.97 8.013c-1.424-2.71-4.793-3.764-7.526-2.353a5.543 5.543 0 0 0-2.758 3.259 5.49 5.49 0 0 0 .392 4.237l10.43 19.873c1.47 2.622 4.776 3.607 7.458 2.221 2.682-1.385 3.764-4.636 2.441-7.333v-.03z" fill="#034A9A"/></g></svg>